<?xml version="1.0" standalone="no"?>
<!DOCTYPE svg PUBLIC "-//W3C//DTD SVG 20010904//EN"
 "http://www.w3.org/TR/2001/REC-SVG-20010904/DTD/svg10.dtd">
<svg version="1.0" xmlns="http://www.w3.org/2000/svg"
 width="300.000000pt" height="300.000000pt" viewBox="0 0 300.000000 300.000000"
 preserveAspectRatio="xMidYMid meet">
<metadata>
Created by potrace 1.11, written by Peter Selinger 2001-2013
</metadata>
<g transform="translate(0.000000,300.000000) scale(0.100000,-0.100000)"
fill="#000000" stroke="none">
<path d="M2418 2561 c-115 -29 -223 -113 -330 -255 -128 -171 -230 -242 -498
-347 -308 -121 -382 -167 -545 -338 -147 -155 -183 -182 -330 -242 -55 -23
-113 -47 -130 -54 -16 -7 -84 -29 -150 -50 -66 -20 -131 -40 -145 -45 -14 -5
-81 -24 -150 -41 -69 -18 -127 -34 -129 -35 -2 -2 2 -17 9 -34 11 -27 16 -30
41 -25 21 5 31 2 35 -9 9 -22 25 -20 106 14 68 29 71 30 52 8 -10 -13 -22 -25
-25 -28 -31 -29 -52 -101 -31 -114 4 -2 61 18 127 46 279 116 512 195 658 223
107 21 270 14 327 -13 58 -28 70 -38 108 -90 45 -63 66 -143 76 -286 6 -86 16
-81 -172 -80 -92 1 -187 4 -212 7 -25 3 -76 9 -115 12 -38 4 -82 8 -97 10 -16
1 -28 0 -29 -4 0 -3 -3 -15 -5 -26 -3 -11 -8 -37 -11 -59 l-6 -38 84 7 c139
11 243 10 265 -3 30 -16 36 -47 13 -76 -24 -31 -24 -43 1 -51 22 -7 57 15 104
64 31 32 80 48 114 37 11 -4 30 -28 42 -54 19 -40 21 -53 12 -92 -19 -80 13
-71 78 24 33 47 83 80 161 105 59 19 82 20 299 15 260 -5 310 -5 321 2 15 9
58 -18 52 -34 -4 -8 2 -21 12 -28 16 -12 17 -18 7 -40 -16 -34 -5 -50 19 -28
10 9 19 22 19 29 0 6 11 34 25 61 33 66 90 98 162 90 84 -10 284 -9 292 0 15
16 23 72 12 79 -21 12 -235 7 -276 -7 -22 -8 -46 -13 -52 -12 -7 1 -17 2 -22
3 -6 0 -11 18 -13 38 l-3 37 -165 42 c-178 45 -271 79 -335 122 -63 42 -66 55
-18 67 39 9 89 34 148 71 184 116 322 330 399 614 24 91 31 124 42 200 2 19 6
43 7 52 2 10 37 41 78 69 41 28 94 68 119 88 25 21 63 44 85 51 22 7 44 15 48
17 5 3 -22 22 -59 42 -62 34 -71 43 -101 102 -62 122 -127 176 -233 194 -77
13 -106 12 -172 -4z m-779 -1536 c39 -8 85 -17 103 -20 18 -3 44 -7 58 -10 14
-2 52 -7 85 -10 72 -8 88 -11 140 -33 47 -19 166 -105 214 -155 l33 -35 -23
-8 c-13 -5 -142 -8 -286 -9 l-262 0 -44 60 c-64 89 -74 107 -91 165 -18 60
-20 84 -7 76 5 -3 41 -13 80 -21z"/>
</g>
</svg>
